<mxfile host="Electron" modified="2024-03-24T06:25:29.115Z" agent="Mozilla/5.0 (Macintosh; Intel Mac OS X 10_15_7) AppleWebKit/537.36 (KHTML, like Gecko) draw.io/21.5.0 Chrome/112.0.5615.204 Electron/24.5.1 Safari/537.36" etag="_RbHdPgKt79WX23236MS" version="21.5.0" type="device">
  <diagram name="Page-1" id="iHLdbjNWuax1q87ekv4w">
    <mxGraphModel dx="588" dy="754" grid="1" gridSize="10" guides="1" tooltips="1" connect="1" arrows="1" fold="1" page="1" pageScale="1" pageWidth="4681" pageHeight="3300" math="0" shadow="0">
      <root>
        <mxCell id="0" />
        <mxCell id="1" parent="0" />
        <mxCell id="B_wt384FFXeN0w8jkMII-2" value="App Chat" style="swimlane;whiteSpace=wrap;html=1;" vertex="1" parent="1">
          <mxGeometry x="210" y="290" width="200" height="200" as="geometry" />
        </mxCell>
        <mxCell id="B_wt384FFXeN0w8jkMII-3" value="Chat" style="ellipse;whiteSpace=wrap;html=1;" vertex="1" parent="1">
          <mxGeometry x="240" y="350" width="140" height="70" as="geometry" />
        </mxCell>
        <mxCell id="B_wt384FFXeN0w8jkMII-4" value="Client A" style="shape=umlActor;verticalLabelPosition=bottom;verticalAlign=top;html=1;outlineConnect=0;" vertex="1" parent="1">
          <mxGeometry x="150" y="355" width="30" height="60" as="geometry" />
        </mxCell>
        <mxCell id="B_wt384FFXeN0w8jkMII-5" value="Client B" style="shape=umlActor;verticalLabelPosition=bottom;verticalAlign=top;html=1;outlineConnect=0;" vertex="1" parent="1">
          <mxGeometry x="440" y="355" width="30" height="60" as="geometry" />
        </mxCell>
        <mxCell id="B_wt384FFXeN0w8jkMII-9" value="" style="endArrow=classic;html=1;rounded=0;exitX=0.5;exitY=0.5;exitDx=0;exitDy=0;exitPerimeter=0;" edge="1" parent="1" source="B_wt384FFXeN0w8jkMII-4" target="B_wt384FFXeN0w8jkMII-3">
          <mxGeometry width="50" height="50" relative="1" as="geometry">
            <mxPoint x="280" y="410" as="sourcePoint" />
            <mxPoint x="330" y="360" as="targetPoint" />
          </mxGeometry>
        </mxCell>
        <mxCell id="B_wt384FFXeN0w8jkMII-10" value="" style="endArrow=classic;html=1;rounded=0;exitX=0.5;exitY=0.5;exitDx=0;exitDy=0;exitPerimeter=0;entryX=1;entryY=0.5;entryDx=0;entryDy=0;" edge="1" parent="1" source="B_wt384FFXeN0w8jkMII-5" target="B_wt384FFXeN0w8jkMII-3">
          <mxGeometry width="50" height="50" relative="1" as="geometry">
            <mxPoint x="280" y="410" as="sourcePoint" />
            <mxPoint x="330" y="360" as="targetPoint" />
          </mxGeometry>
        </mxCell>
      </root>
    </mxGraphModel>
  </diagram>
</mxfile>
